<svg width="274" height="140" viewBox="0 0 274 140" fill="none" xmlns="http://www.w3.org/2000/svg">
<path fill-rule="evenodd" clip-rule="evenodd" d="M21.7971 70.7225V140H0V70.7225H21.7971ZM180.133 70.7225V140H158.341V70.7225H180.133ZM110.442 70.7225V140H88.6436V70.7225H110.442ZM226.606 70.7225V140H204.809V70.7225H226.606ZM68.2688 47.1524V69.2602H23.2384V47.1524H68.2688ZM21.7971 47.1689V69.2601H0L21.7971 47.1689ZM158.341 47.2129L179.884 69.2604H158.341V47.2129ZM156.896 47.1524V69.2602H111.883V47.1524H156.896ZM110.44 48.1856V69.2604H89.6596L110.44 48.1856ZM273.078 47.1524V69.2602H228.047V47.1524H273.078ZM226.606 47.1693V69.2604H204.81L226.606 47.1693ZM110.441 0V46.1162L88.6421 68.2253V0H110.441Z" fill="black"/>
</svg>
