<?xml version="1.0" encoding="utf-8"?>
<!-- Generator: Adobe Illustrator 25.3.1, SVG Export Plug-In . SVG Version: 6.00 Build 0)  -->
<svg version="1.1" id="Layer_1" xmlns="http://www.w3.org/2000/svg" xmlns:xlink="http://www.w3.org/1999/xlink" x="0px" y="0px"
	 viewBox="0 0 250.9 249.8" style="enable-background:new 0 0 250.9 249.8;" xml:space="preserve">
<style type="text/css">
	.st0{fill:#FFFFFF;}
</style>
<g>
	<path class="st0" d="M115,41.2c3,3,4.9,7.2,4.9,11.8v46c6.6-5.3,16.2-4.6,22.2,1.3c2.8,2.8,4.7,6.5,5,10.6
		c6.6-5.3,16.2-4.7,22.3,1.3c2.8,2.7,4.6,6.4,5,10.5c6.2-4.6,14.7-3.8,20.2,1.5c2.8,2.7,4.6,6.6,4.6,10.5l0.1,58
		c0,23.7-16.8,42.8-40.9,42.8h-39.8c-14.5,0-27.4-6.6-33.3-20.3c-4.8-11.1-10.8-21.8-17.4-31.9c-6.7-10.2-13.9-20-20.9-29.4
		c-2.7-3.6-3.8-7.9-3.1-12.4c1.3-8.9,9.3-15.2,18.3-13.9c4.2,0.6,8.2,2.8,11.3,6.1l13.3,14.2V53c0-4.6,1.9-8.7,4.9-11.8
		C98,34.7,108.5,34.7,115,41.2L115,41.2z M174.3,136.1l0,16.7c0,1.7-1.4,3.2-3.2,3.2c-1.7,0-3.2-1.4-3.2-3.2l0-16.7
		c0-4.1,0-8.1,0-12.2c0-2.8-1.2-5.4-3.1-7.2c-4.1-4-10.7-4.1-14.7,0c-2.7,2.7-3,5.3-3,8.7l-0.1,18.8c0,1.7-1.4,3.2-3.2,3.2
		c-1.7,0-3.2-1.4-3.2-3.2l0.1-19c0-4.4,0-8.8,0-13.2c0-2.8-1.2-5.4-3.1-7.2c-4.1-4-10.7-4.1-14.7,0c-2.2,2.2-3,4.8-3,7.9l0.1,21
		c0,1.7-1.4,3.2-3.2,3.2c-1.7,0-3.2-1.4-3.2-3.2l-0.1-21c-0.1-19.9,0-39.8,0-59.7c0-2.8-1.2-5.4-3-7.3c-4-4-10.5-4-14.6,0
		c-1.9,1.9-3,4.5-3,7.3v102.8c0,2.9-3.5,4.3-5.5,2.2l-18.8-20c-2.1-2.3-4.8-3.7-7.6-4.1c-5.5-0.8-10.3,3.1-11.1,8.6
		c-0.4,2.7,0.3,5.5,1.9,7.7c7.1,9.5,14.4,19.3,21.1,29.7c6.8,10.5,13,21.4,17.9,32.9c4.9,11.3,15.6,16.4,27.5,16.4h39.8
		c20.8,0,34.5-16.4,34.5-36.6v-57.4c0-2.5-1.1-4.7-2.7-6.4c-3.6-3.5-9.4-3.6-13,0C174.7,130.9,174.3,133.2,174.3,136.1L174.3,136.1z
		"/>
	<path class="st0" d="M80.4,74.1c1.3,1.2,1.3,3.2,0.1,4.5c-1.2,1.3-3.2,1.3-4.5,0.1c-3.7-3.6-6.7-7.9-8.7-12.8
		c-6.1-14.6-2.8-31.5,8.4-42.7c15.2-15.1,40-15.1,55.2,0c11.2,11.2,14.5,28.2,8.4,42.7c-2,4.8-5,9.2-8.7,12.8
		c-1.3,1.2-3.3,1.2-4.5-0.1c-1.2-1.2-1.2-3.3,0.1-4.5c3.1-3,5.6-6.7,7.3-10.7c5.1-12.2,2.3-26.4-7-35.8c-12.7-12.7-33.5-12.7-46.2,0
		c-9.4,9.4-12.2,23.6-7,35.8C74.8,67.4,77.3,71.1,80.4,74.1L80.4,74.1z"/>
</g>
</svg>
