<svg width="26" height="19" viewBox="0 0 26 19" fill="none" xmlns="http://www.w3.org/2000/svg">
<path d="M1.76882 1.09918C1.80296 1.07478 1.83914 1.05309 1.8768 1.03448C2.31525 0.685135 2.86504 0.496083 3.43133 0.500062H23.3812C23.9389 0.501688 24.4791 0.690367 24.9106 1.03448C24.957 1.05165 25.0016 1.07334 25.0437 1.09918C25.5779 1.56457 25.8807 2.23108 25.8749 2.92905V15.8835C25.8749 16.5278 25.6122 17.1455 25.1446 17.6012C24.6768 18.0566 24.0427 18.3125 23.3812 18.3125H3.43131C2.76983 18.3125 2.13567 18.0566 1.66789 17.6012C1.20031 17.1455 0.937582 16.5278 0.937582 15.8835V2.92905C0.931829 2.23108 1.23464 1.56457 1.76883 1.09918H1.76882ZM4.26255 2.11939L12.9407 8.44303C13.0749 8.54153 13.2384 8.59484 13.4063 8.59484C13.5742 8.59484 13.7377 8.54153 13.8718 8.44303L22.55 2.11939H4.26255ZM2.60006 15.8835C2.60006 16.0982 2.68764 16.3043 2.8435 16.4561C2.99935 16.6079 3.21088 16.6932 3.43131 16.6932H23.3812C23.6016 16.6932 23.8131 16.6079 23.969 16.4561C24.1248 16.3043 24.2124 16.0982 24.2124 15.8835V2.92905L14.8692 9.73015C14.449 10.0426 13.935 10.212 13.4062 10.212C12.8774 10.212 12.3634 10.0426 11.9432 9.73015L2.59997 2.92905L2.60006 15.8835Z" fill="white"/>
</svg>
