<svg width="20" height="20" viewBox="0 0 20 20" fill="none" xmlns="http://www.w3.org/2000/svg">
<path d="M10.0001 1.6665C12.2642 1.6665 12.5467 1.67484 13.4351 1.7165C14.3226 1.75817 14.9267 1.89734 15.4584 2.104C16.0084 2.31567 16.4717 2.60234 16.9351 3.06484C17.3588 3.48142 17.6867 3.98533 17.8959 4.5415C18.1017 5.07234 18.2417 5.67734 18.2834 6.56484C18.3226 7.45317 18.3334 7.73567 18.3334 9.99984C18.3334 12.264 18.3251 12.5465 18.2834 13.4348C18.2417 14.3223 18.1017 14.9265 17.8959 15.4582C17.6873 16.0147 17.3593 16.5187 16.9351 16.9348C16.5184 17.3584 16.0145 17.6863 15.4584 17.8957C14.9276 18.1015 14.3226 18.2415 13.4351 18.2832C12.5467 18.3223 12.2642 18.3332 10.0001 18.3332C7.73591 18.3332 7.45341 18.3248 6.56508 18.2832C5.67758 18.2415 5.07341 18.1015 4.54175 17.8957C3.98535 17.6869 3.48135 17.359 3.06508 16.9348C2.64125 16.5183 2.31336 16.0144 2.10425 15.4582C1.89758 14.9273 1.75841 14.3223 1.71675 13.4348C1.67758 12.5465 1.66675 12.264 1.66675 9.99984C1.66675 7.73567 1.67508 7.45317 1.71675 6.56484C1.75841 5.6765 1.89758 5.07317 2.10425 4.5415C2.31278 3.98499 2.64075 3.48094 3.06508 3.06484C3.48147 2.64086 3.98544 2.31295 4.54175 2.104C5.07341 1.89734 5.67675 1.75817 6.56508 1.7165C7.45341 1.67734 7.73591 1.6665 10.0001 1.6665ZM10.0001 5.83317C8.89501 5.83317 7.8352 6.27216 7.0538 7.05356C6.2724 7.83496 5.83341 8.89477 5.83341 9.99984C5.83341 11.1049 6.2724 12.1647 7.0538 12.9461C7.8352 13.7275 8.89501 14.1665 10.0001 14.1665C11.1052 14.1665 12.165 13.7275 12.9464 12.9461C13.7278 12.1647 14.1667 11.1049 14.1667 9.99984C14.1667 8.89477 13.7278 7.83496 12.9464 7.05356C12.165 6.27216 11.1052 5.83317 10.0001 5.83317ZM15.4167 5.62484C15.4167 5.34857 15.307 5.08362 15.1117 4.88827C14.9163 4.69292 14.6513 4.58317 14.3751 4.58317C14.0988 4.58317 13.8339 4.69292 13.6385 4.88827C13.4432 5.08362 13.3334 5.34857 13.3334 5.62484C13.3334 5.9011 13.4432 6.16606 13.6385 6.36141C13.8339 6.55676 14.0988 6.6665 14.3751 6.6665C14.6513 6.6665 14.9163 6.55676 15.1117 6.36141C15.307 6.16606 15.4167 5.9011 15.4167 5.62484ZM10.0001 7.49984C10.6631 7.49984 11.299 7.76323 11.7678 8.23207C12.2367 8.70091 12.5001 9.3368 12.5001 9.99984C12.5001 10.6629 12.2367 11.2988 11.7678 11.7676C11.299 12.2364 10.6631 12.4998 10.0001 12.4998C9.33704 12.4998 8.70115 12.2364 8.23231 11.7676C7.76347 11.2988 7.50008 10.6629 7.50008 9.99984C7.50008 9.3368 7.76347 8.70091 8.23231 8.23207C8.70115 7.76323 9.33704 7.49984 10.0001 7.49984Z" fill="white"/>
</svg>
