<?xml version="1.0" encoding="utf-8"?>
<!-- Generator: Adobe Illustrator 26.0.3, SVG Export Plug-In . SVG Version: 6.00 Build 0)  -->
<svg version="1.1" id="Layer_1" xmlns="http://www.w3.org/2000/svg" xmlns:xlink="http://www.w3.org/1999/xlink" x="0px" y="0px"
	 viewBox="0 0 25 25" style="enable-background:new 0 0 25 25;" xml:space="preserve">
<style type="text/css">
	.st0{fill-rule:evenodd;clip-rule:evenodd;}
</style>
<g>
	<path id="path-1_00000058575136495150055730000017286942531450223766_" class="st0" d="M12.8,5C8.9,5,7,7.7,7,10
		c0,1.4,0.5,2.6,1.7,3.1c0.2,0.1,0.4,0,0.4-0.2c0-0.1,0.1-0.5,0.2-0.6c0.1-0.2,0-0.3-0.1-0.4c-0.3-0.4-0.5-0.9-0.5-1.6
		c0-2,1.5-3.9,4-3.9c2.2,0,3.4,1.3,3.4,3.1c0,2.3-1,4.3-2.6,4.3c-0.8,0-1.5-0.7-1.3-1.5c0.2-1,0.7-2.1,0.7-2.9
		c0-0.7-0.4-1.2-1.1-1.2c-0.9,0-1.6,0.9-1.6,2.1c0,0.8,0.3,1.3,0.3,1.3s-0.9,3.7-1,4.4c-0.3,1.3,0,2.9,0,3.1c0,0.1,0.1,0.1,0.2,0
		c0.1-0.1,1.1-1.4,1.5-2.6c0.1-0.4,0.6-2.2,0.6-2.2c0.3,0.5,1.1,1,2,1c2.6,0,4.4-2.4,4.4-5.5C17.9,7.2,15.9,5,12.8,5L12.8,5z"/>
</g>
</svg>
