<svg width="20" height="21" viewBox="0 0 20 21" fill="none" xmlns="http://www.w3.org/2000/svg">
<path d="M19.8828 19.3281L14.8438 14.2891C14.7396 14.1849 14.6224 14.1328 14.4922 14.1328H14.1016C14.7786 13.4036 15.2995 12.5703 15.6641 11.6328C16.0547 10.6693 16.25 9.66667 16.25 8.625C16.25 7.14062 15.8854 5.78646 15.1562 4.5625C14.4271 3.3125 13.4375 2.32292 12.1875 1.59375C10.9635 0.864583 9.60938 0.5 8.125 0.5C6.64062 0.5 5.27344 0.864583 4.02344 1.59375C2.79948 2.32292 1.82292 3.3125 1.09375 4.5625C0.364583 5.78646 0 7.14062 0 8.625C0 10.1094 0.364583 11.4766 1.09375 12.7266C1.82292 13.9505 2.79948 14.9271 4.02344 15.6562C5.27344 16.3854 6.64062 16.75 8.125 16.75C9.16667 16.75 10.1562 16.5677 11.0938 16.2031C12.0573 15.8125 12.9036 15.2786 13.6328 14.6016V14.9922C13.6328 15.1224 13.6849 15.2266 13.7891 15.3047L18.8281 20.3438C18.9062 20.4479 19.0104 20.5 19.1406 20.5C19.2708 20.5 19.388 20.4479 19.4922 20.3438L19.8828 19.9922C19.9609 19.888 20 19.7708 20 19.6406C20 19.5104 19.9609 19.4062 19.8828 19.3281ZM8.125 15.5C6.875 15.5 5.71615 15.2005 4.64844 14.6016C3.60677 13.9766 2.77344 13.1432 2.14844 12.1016C1.54948 11.0339 1.25 9.875 1.25 8.625C1.25 7.375 1.54948 6.22917 2.14844 5.1875C2.77344 4.11979 3.60677 3.28646 4.64844 2.6875C5.71615 2.0625 6.875 1.75 8.125 1.75C9.375 1.75 10.5208 2.0625 11.5625 2.6875C12.6302 3.28646 13.4635 4.11979 14.0625 5.1875C14.6875 6.22917 15 7.375 15 8.625C15 9.875 14.6875 11.0339 14.0625 12.1016C13.4635 13.1432 12.6302 13.9766 11.5625 14.6016C10.5208 15.2005 9.375 15.5 8.125 15.5Z" fill="black"/>
</svg>
