<?xml version="1.0" encoding="utf-8"?>
<!-- Generator: Adobe Illustrator 25.2.1, SVG Export Plug-In . SVG Version: 6.00 Build 0)  -->
<svg version="1.1" id="Layer_1" xmlns="http://www.w3.org/2000/svg" xmlns:xlink="http://www.w3.org/1999/xlink" x="0px" y="0px"
	 viewBox="0 0 50 50" enable-background="new 0 0 50 50" xml:space="preserve">
<path fill="#FFFFFF" d="M13.9,25.4l0.4,0.3c0.1,0.1,0.2,0.1,0.4,0.1s0.3,0,0.4-0.1l8.7-8.7v18.4c0,0.2,0.1,0.3,0.2,0.4
	c0.1,0.1,0.2,0.1,0.4,0.1h0.5c0.2,0,0.3,0,0.4-0.1s0.1-0.3,0.1-0.4V17l8.7,8.7c0.1,0.1,0.3,0.1,0.4,0.1c0.2,0,0.3,0,0.4-0.1l0.4-0.3
	c0.1-0.1,0.1-0.3,0.1-0.4c0-0.2,0-0.3-0.1-0.4L25,14.3c-0.1-0.1-0.2-0.2-0.4-0.2s-0.3,0.1-0.4,0.2L13.9,24.6
	c-0.1,0.1-0.1,0.2-0.1,0.4C13.7,25.1,13.8,25.3,13.9,25.4z"/>
</svg>
