<svg width="55" height="55" viewBox="0 0 55 55" fill="none" xmlns="http://www.w3.org/2000/svg">
<path d="M22.0221 27.1964C21.9248 27.0042 21.7552 26.8585 21.5506 26.7913C21.3459 26.7241 21.1229 26.741 20.9307 26.8381L17.0972 28.7749C16.9049 28.8721 16.7591 29.0418 16.6919 29.2465C16.6247 29.4512 16.6416 29.6742 16.7388 29.8665C16.8361 30.0588 17.0058 30.2045 17.2105 30.2717C17.4153 30.3389 17.6384 30.322 17.8307 30.2248L21.6637 28.288C21.8559 28.1907 22.0017 28.0211 22.0689 27.8164C22.1361 27.6117 22.1193 27.3887 22.0221 27.1964Z" fill="white"/>
<path d="M26.5603 20.4096C26.5122 20.3143 26.4458 20.2295 26.3648 20.16C26.2839 20.0904 26.1901 20.0375 26.0887 20.0043C25.9873 19.971 25.8803 19.958 25.7739 19.9661C25.6675 19.9741 25.5637 20.0031 25.4685 20.0513L21.7399 21.9351C21.5477 22.0324 21.4019 22.202 21.3346 22.4067C21.2674 22.6114 21.2841 22.8344 21.3811 23.0267L21.5668 23.3943L4.298 32.1198C4.10574 32.2171 3.95999 32.3867 3.89279 32.5914C3.82559 32.7961 3.84243 33.0191 3.93962 33.2114L4.48507 34.2905L0.446406 36.3294C0.3511 36.3774 0.266199 36.4437 0.196565 36.5245C0.12693 36.6054 0.0739299 36.6992 0.0405982 36.8005C0.00726644 36.9019 -0.00574205 37.0088 0.00231772 37.1152C0.0103775 37.2216 0.0393471 37.3253 0.0875679 37.4205L1.97135 41.1488C2.01931 41.2441 2.0856 41.3289 2.16643 41.3985C2.24727 41.4681 2.34105 41.5211 2.4424 41.5544C2.54375 41.5877 2.65067 41.6006 2.75704 41.5925C2.86341 41.5844 2.96713 41.5554 3.06226 41.5071L7.10092 39.4682L7.64313 40.5408C7.69118 40.636 7.75754 40.7209 7.83842 40.7904C7.9193 40.86 8.01312 40.913 8.11449 40.9462C8.21586 40.9795 8.3228 40.9925 8.42919 40.9844C8.53558 40.9763 8.63933 40.9473 8.7345 40.8991L13.0591 38.7149C13.3086 39.0087 13.6036 39.2607 13.9328 39.4612L8.942 53.9209C8.90714 54.0217 8.8925 54.1284 8.8989 54.2349C8.9053 54.3413 8.93263 54.4455 8.97932 54.5414C9.02601 54.6373 9.09115 54.7231 9.17101 54.7938C9.25087 54.8645 9.34389 54.9188 9.44475 54.9536C9.52985 54.9839 9.61947 54.9996 9.70981 55C9.87883 55 10.0436 54.9472 10.1812 54.8492C10.3189 54.7511 10.4225 54.6125 10.4776 54.4528L15.4744 39.9769C15.5826 39.9866 15.6921 39.9936 15.8031 39.9936C15.914 39.9936 16.0259 39.9866 16.1355 39.9764L21.1323 54.4528C21.1874 54.6125 21.291 54.7511 21.4287 54.8492C21.5663 54.9472 21.7311 55 21.9001 55C21.9904 54.9996 22.0801 54.9839 22.1652 54.9536C22.2661 54.9189 22.3591 54.8646 22.439 54.7939C22.5189 54.7232 22.5841 54.6374 22.6308 54.5415C22.6775 54.4456 22.7048 54.3414 22.7111 54.2349C22.7175 54.1284 22.7028 54.0217 22.6679 53.9209L17.6767 39.4594C18.3272 39.067 18.8356 38.4774 19.1278 37.7762C19.4201 37.075 19.4809 36.2989 19.3014 35.5608L26.0065 32.1727L26.1922 32.544C26.2894 32.7363 26.4589 32.8821 26.6636 32.9493C26.8683 33.0166 27.0913 32.9999 27.2836 32.9028L31.0126 31.0184C31.2049 30.9211 31.3506 30.7515 31.4178 30.5468C31.485 30.3421 31.4682 30.1191 31.371 29.9268L26.5603 20.4096ZM3.05436 39.6914L1.90265 37.414L5.21668 35.7409L6.36793 38.0183L3.05436 39.6914ZM15.805 38.3673C15.4147 38.3673 15.0333 38.2516 14.7089 38.0349C14.3844 37.8181 14.1315 37.5101 13.9822 37.1496C13.8329 36.7892 13.7938 36.3926 13.87 36.01C13.9461 35.6273 14.134 35.2759 14.4099 35C14.6858 34.7242 15.0373 34.5363 15.4201 34.4602C15.8028 34.3841 16.1994 34.4231 16.56 34.5724C16.9205 34.7217 17.2286 34.9745 17.4454 35.2989C17.6622 35.6233 17.7779 36.0047 17.7779 36.3948C17.7773 36.9177 17.5692 37.4191 17.1993 37.7889C16.8295 38.1587 16.328 38.3667 15.805 38.3673ZM18.5786 34.1058C18.0609 33.4726 17.3425 33.0352 16.5423 32.8657C15.7421 32.6963 14.908 32.8051 14.178 33.1741C13.448 33.5431 12.8659 34.1502 12.528 34.895C12.1901 35.6397 12.1166 36.4775 12.3196 37.2697L8.72846 39.083L5.75749 33.204L22.3002 24.8442L25.2712 30.7223L18.5786 34.1058ZM27.2757 31.0857L23.198 23.0188L25.4764 21.8674L29.5545 29.9338L27.2757 31.0857Z" fill="white"/>
<path d="M31.4272 4.47873L32.514 3.41915C32.6225 3.31336 32.6993 3.17931 32.7356 3.03217C32.7719 2.88502 32.7664 2.73065 32.7195 2.58651C32.6727 2.44237 32.5864 2.31421 32.4705 2.21653C32.3546 2.11884 32.2137 2.05553 32.0637 2.03375L30.5615 1.81561L29.8902 0.452953C29.8231 0.316998 29.7194 0.20252 29.5906 0.122472C29.4618 0.0424238 29.3133 0 29.1616 0C29.01 0 28.8614 0.0424238 28.7327 0.122472C28.6039 0.20252 28.5001 0.316998 28.433 0.452953L27.7613 1.81329L26.2596 2.03143C26.1096 2.05321 25.9686 2.11652 25.8527 2.21421C25.7368 2.31189 25.6506 2.44005 25.6037 2.58419C25.5569 2.72833 25.5513 2.8827 25.5876 3.02985C25.624 3.17699 25.7007 3.31104 25.8093 3.41683L26.896 4.47873L26.6398 5.97413C26.6139 6.12355 26.6304 6.27723 26.6874 6.41775C26.7445 6.55827 26.8397 6.67999 26.9625 6.7691C27.0852 6.85821 27.2304 6.91115 27.3817 6.92191C27.533 6.93267 27.6843 6.90082 27.8184 6.82997L29.1614 6.12404L30.5048 6.82997C30.639 6.90063 30.7902 6.93233 30.9414 6.92149C31.0926 6.91065 31.2378 6.8577 31.3604 6.76862C31.4831 6.67955 31.5784 6.55793 31.6355 6.41751C31.6926 6.2771 31.7092 6.12351 31.6835 5.97413L31.4272 4.47873ZM29.9882 3.61361C29.894 3.70559 29.8236 3.81912 29.7832 3.94438C29.7427 4.06964 29.7334 4.20287 29.7561 4.33254L29.8062 4.62679L29.5421 4.48755C29.4255 4.42598 29.2957 4.39379 29.1639 4.39379C29.0322 4.39379 28.9024 4.42598 28.7858 4.48755L28.5212 4.62679L28.5718 4.33254C28.5943 4.20287 28.585 4.06968 28.5445 3.94443C28.5041 3.81919 28.4338 3.70566 28.3397 3.61361L28.1257 3.40476L28.4214 3.36206C28.5518 3.34308 28.6756 3.29269 28.7822 3.21523C28.8888 3.13778 28.975 3.03558 29.0333 2.91743L29.1651 2.6501L29.2974 2.91743C29.3556 3.03562 29.4418 3.13787 29.5484 3.21533C29.655 3.2928 29.7788 3.34316 29.9092 3.36206L30.205 3.40476L29.9882 3.61361Z" fill="white"/>
<path d="M38.8764 12.7837L37.3747 12.5656L36.7029 11.2048C36.6358 11.0689 36.5321 10.9546 36.4034 10.8746C36.2746 10.7947 36.1261 10.7523 35.9746 10.7523C35.8231 10.7523 35.6745 10.7947 35.5458 10.8746C35.4171 10.9546 35.3134 11.0689 35.2462 11.2048L34.5745 12.5656L33.0737 12.7837C32.9237 12.8054 32.7827 12.8687 32.6667 12.9663C32.5507 13.064 32.4644 13.1921 32.4175 13.3363C32.3706 13.4805 32.365 13.6349 32.4013 13.782C32.4376 13.9292 32.5144 14.0633 32.623 14.1691L33.7102 15.2282L33.4534 16.7236C33.4278 16.873 33.4445 17.0266 33.5016 17.1669C33.5587 17.3073 33.6539 17.4289 33.7766 17.518C33.8992 17.6071 34.0443 17.6601 34.1955 17.6711C34.3467 17.682 34.4979 17.6504 34.6321 17.5799L35.9755 16.874L37.319 17.5799C37.4531 17.6504 37.6044 17.682 37.7556 17.6711C37.9067 17.6601 38.0519 17.6071 38.1745 17.518C38.2971 17.4289 38.3924 17.3073 38.4495 17.1669C38.5066 17.0266 38.5232 16.873 38.4976 16.7236L38.2409 15.2282L39.3281 14.1691C39.4366 14.0633 39.5134 13.9292 39.5497 13.782C39.586 13.6349 39.5804 13.4805 39.5335 13.3363C39.4866 13.1921 39.4003 13.064 39.2843 12.9663C39.1684 12.8687 39.0274 12.8054 38.8773 12.7837H38.8764ZM36.8 14.3617C36.706 14.4538 36.6358 14.5674 36.5953 14.6926C36.5549 14.8178 36.5455 14.951 36.5679 15.0806L36.6185 15.3749L36.3539 15.2357C36.2373 15.1744 36.1076 15.1424 35.976 15.1424C35.8443 15.1424 35.7146 15.1744 35.5981 15.2357L35.3335 15.3749L35.3841 15.0806C35.4065 14.951 35.3971 14.8178 35.3566 14.6926C35.3162 14.5674 35.246 14.4538 35.152 14.3617L34.938 14.1533L35.2332 14.1102C35.3636 14.0913 35.4874 14.041 35.594 13.9636C35.7006 13.8862 35.7868 13.7841 35.8451 13.666L35.9774 13.3982L36.1097 13.666C36.168 13.7841 36.2542 13.8862 36.3608 13.9636C36.4673 14.041 36.5912 14.0913 36.7215 14.1102L37.0168 14.1533L36.8 14.3617Z" fill="white"/>
<path d="M15.6342 13.1214L15.3779 14.6173C15.3522 14.7666 15.3688 14.9202 15.4259 15.0606C15.483 15.2011 15.5783 15.3227 15.7009 15.4118C15.8236 15.5008 15.9688 15.5538 16.12 15.5646C16.2712 15.5755 16.4224 15.5438 16.5566 15.4731L17.8995 14.7672L19.243 15.4731C19.3771 15.5438 19.5283 15.5755 19.6795 15.5646C19.8307 15.5538 19.9759 15.5008 20.0986 15.4118C20.2212 15.3227 20.3165 15.2011 20.3736 15.0606C20.4307 14.9202 20.4473 14.7666 20.4216 14.6173L20.1654 13.1214L21.2521 12.0623C21.3606 11.9565 21.4374 11.8224 21.4737 11.6753C21.5101 11.5282 21.5045 11.3738 21.4577 11.2296C21.4108 11.0855 21.3245 10.9573 21.2086 10.8597C21.0927 10.762 20.9518 10.6987 20.8018 10.6769L19.3001 10.4587L18.6283 9.0984C18.5613 8.96245 18.4575 8.84797 18.3287 8.76792C18.2 8.68787 18.0514 8.64545 17.8998 8.64545C17.7481 8.64545 17.5995 8.68787 17.4708 8.76792C17.342 8.84797 17.2382 8.96245 17.1712 9.0984L16.5013 10.4587L14.9996 10.6769C14.8496 10.6987 14.7086 10.762 14.5927 10.8597C14.4768 10.9573 14.3906 11.0855 14.3437 11.2296C14.2969 11.3738 14.2913 11.5282 14.3276 11.6753C14.364 11.8224 14.4407 11.9565 14.5493 12.0623L15.6342 13.1214ZM17.1559 12.0052C17.2862 11.9862 17.4101 11.9358 17.5167 11.8584C17.6232 11.7809 17.7094 11.6787 17.7677 11.5606L17.8995 11.2932L18.0318 11.5606C18.0901 11.6787 18.1763 11.7809 18.2829 11.8584C18.3895 11.9358 18.5133 11.9862 18.6437 12.0052L18.9394 12.0479L18.7254 12.2567C18.6313 12.3488 18.561 12.4623 18.5206 12.5876C18.4801 12.7128 18.4708 12.846 18.4933 12.9757L18.5434 13.2699L18.2793 13.1307C18.1627 13.0691 18.0329 13.0369 17.9012 13.0369C17.7694 13.0369 17.6396 13.0691 17.523 13.1307L17.2589 13.2699L17.309 12.9757C17.3315 12.846 17.3222 12.7128 17.2817 12.5876C17.2413 12.4623 17.171 12.3488 17.0769 12.2567L16.8629 12.0479L17.1559 12.0052Z" fill="white"/>
<path d="M47.4237 30.5944L45.9215 30.3763L45.2498 29.016C45.1828 28.88 45.0791 28.7655 44.9503 28.6854C44.8216 28.6053 44.673 28.5629 44.5214 28.5629C44.3698 28.5629 44.2213 28.6053 44.0925 28.6854C43.9638 28.7655 43.8601 28.88 43.7931 29.016L43.1214 30.3768L41.6192 30.5949C41.4692 30.6168 41.3284 30.6802 41.2127 30.778C41.0969 30.8757 41.0107 31.0038 40.9639 31.1478C40.917 31.2919 40.9114 31.4462 40.9476 31.5933C40.9839 31.7404 41.0605 31.8744 41.1689 31.9803L42.2561 33.0399L41.9994 34.5353C41.9742 34.6845 41.9913 34.8377 42.0486 34.9777C42.1059 35.1178 42.2012 35.239 42.3238 35.3278C42.4463 35.4165 42.5912 35.4693 42.7421 35.4802C42.893 35.4911 43.044 35.4596 43.178 35.3893L44.5214 34.6829L45.8649 35.3893C45.9991 35.4598 46.1503 35.4913 46.3015 35.4804C46.4527 35.4695 46.5978 35.4165 46.7204 35.3274C46.843 35.2383 46.9383 35.1167 46.9954 34.9763C47.0525 34.8359 47.0691 34.6823 47.0435 34.533L46.7873 33.0376L47.874 31.978C47.9825 31.8722 48.0593 31.7381 48.0957 31.591C48.132 31.4439 48.1264 31.2895 48.0796 31.1453C48.0327 31.0012 47.9465 30.873 47.8306 30.7754C47.7147 30.6777 47.5737 30.6144 47.4237 30.5926V30.5944ZM45.3468 32.1724C45.2527 32.2645 45.1824 32.378 45.142 32.5032C45.1015 32.6285 45.0922 32.7617 45.1147 32.8914L45.1648 33.1856L44.9007 33.0464C44.7842 32.9848 44.6544 32.9526 44.5226 32.9526C44.3908 32.9526 44.261 32.9848 44.1445 33.0464L43.8799 33.1856L43.9305 32.8914C43.9529 32.7617 43.9434 32.6285 43.903 32.5033C43.8626 32.3781 43.7924 32.2646 43.6984 32.1724L43.4844 31.9636L43.7801 31.9209C43.9104 31.9018 44.0341 31.8514 44.1406 31.774C44.2471 31.6965 44.3332 31.5943 44.3915 31.4763L44.5214 31.2122L44.6537 31.48C44.712 31.5982 44.7981 31.7004 44.9047 31.7779C45.0113 31.8553 45.1352 31.9057 45.2656 31.9246L45.5608 31.9673L45.3468 32.1724Z" fill="white"/>
<path d="M46.5639 0C45.2413 0.00330136 43.9378 0.315553 42.7573 0.911851C41.5768 1.50815 40.552 2.37199 39.7646 3.43449C39.6674 3.56662 39.6125 3.72511 39.6071 3.88905C39.6018 4.053 39.6462 4.21472 39.7346 4.35291C39.823 4.49109 39.9512 4.59926 40.1024 4.66315C40.2535 4.72704 40.4204 4.74366 40.5811 4.71082C41.9349 4.41884 43.3455 4.54559 44.6255 5.07423C45.9055 5.60287 46.9943 6.50838 47.7473 7.67045C48.5003 8.83252 48.8818 10.1961 48.8412 11.5802C48.8005 12.9642 48.3396 14.3031 47.5198 15.419C47.4311 15.54 47.3777 15.6833 47.3655 15.8328C47.3533 15.9823 47.3827 16.1323 47.4506 16.2661C47.5184 16.3999 47.622 16.5123 47.7498 16.5909C47.8776 16.6694 48.0247 16.711 48.1748 16.7111C48.232 16.711 48.2891 16.705 48.3451 16.693C50.3809 16.2518 52.1817 15.0737 53.4013 13.3854C54.621 11.6971 55.1734 9.61766 54.9524 7.54679C54.7315 5.47591 53.7527 3.55978 52.2043 2.16671C50.6558 0.77364 48.647 0.0019578 46.5639 0ZM49.9221 14.3747C50.3908 13.1351 50.5612 11.8026 50.4197 10.4849C50.2782 9.16726 49.8287 7.90134 49.1075 6.78943C48.3863 5.67752 47.4136 4.75081 46.268 4.08416C45.1224 3.41751 43.836 3.02961 42.5127 2.95181C43.5289 2.20362 44.7327 1.7518 45.9902 1.64658C47.2478 1.54137 48.5099 1.78686 49.6363 2.35579C50.7627 2.92471 51.7093 3.79478 52.3707 4.86929C53.0322 5.94379 53.3827 7.18063 53.3833 8.44235C53.3788 9.6481 53.0565 10.8314 52.4488 11.8729C51.8412 12.9144 50.9696 13.7773 49.9221 14.3747Z" fill="white"/>
</svg>
