<?xml version="1.0" encoding="utf-8"?>
<!-- Generator: Adobe Illustrator 25.2.1, SVG Export Plug-In . SVG Version: 6.00 Build 0)  -->
<svg version="1.1" id="Layer_1" xmlns="http://www.w3.org/2000/svg" xmlns:xlink="http://www.w3.org/1999/xlink" x="0px" y="0px"
	 viewBox="0 0 163.8 30" enable-background="new 0 0 163.8 30" xml:space="preserve">
<g id="Layer_2_1_">
</g>
<g>
	<g id="Layer_1_1_">
		<path d="M23.6,18.3l6.5-5.3c0.9-0.8,0.4-2.2-0.8-2.3L21,10.2c-0.5,0-0.9-0.3-1.1-0.8l-3.1-7.8c-0.4-1.1-2-1.1-2.4,0l-3.1,7.8
			c-0.2,0.5-0.6,0.8-1.1,0.8l-8.4,0.5C0.6,10.8,0.1,12.2,1,13l6.6,5.2C8,18.5,8.2,19.1,8,19.5l-2.1,8.1c-0.3,1.1,0.9,2.1,2,1.4
			l7-4.5c0.4-0.3,1-0.3,1.4,0l7.1,4.5c1,0.6,2.2-0.3,2-1.4l-2.1-8.1C23.1,19.1,23.2,18.6,23.6,18.3z"/>
	</g>
	<g id="Layer_1_2_">
		<path d="M56.8,18.3l6.5-5.3c0.9-0.8,0.4-2.2-0.8-2.3l-8.3-0.5c-0.5,0-0.9-0.3-1.1-0.8L50,1.6c-0.4-1.1-2-1.1-2.4,0l-3.1,7.8
			c-0.2,0.5-0.6,0.8-1.1,0.8L35,10.7c-1.2,0.1-1.7,1.5-0.8,2.3l6.6,5.2c0.4,0.3,0.6,0.9,0.4,1.3l-2.1,8.1c-0.3,1.1,0.9,2.1,2,1.4
			l7-4.5c0.4-0.3,1-0.3,1.4,0l7.1,4.5c1,0.6,2.2-0.3,2-1.4l-2.1-8.1C56.3,19.1,56.4,18.6,56.8,18.3z"/>
	</g>
	<g id="Layer_1_4_">
		<path d="M89.9,18.3l6.5-5.3c0.9-0.8,0.4-2.2-0.8-2.3l-8.3-0.5c-0.5,0-0.9-0.3-1.1-0.8l-3.1-7.8c-0.4-1.1-2-1.1-2.4,0l-3.1,7.8
			c-0.2,0.5-0.6,0.8-1.1,0.8l-8.4,0.5c-1.2,0.1-1.7,1.5-0.8,2.3l6.6,5.2c0.4,0.3,0.6,0.9,0.4,1.3l-2.1,8.1c-0.3,1.1,0.9,2.1,2,1.4
			l7-4.5c0.4-0.3,1-0.3,1.4,0l7.1,4.5c1,0.6,2.2-0.3,2-1.4l-2.1-8.1C89.4,19.1,89.5,18.6,89.9,18.3z"/>
	</g>
	<g id="Layer_1_5_">
		<path d="M156.2,18.3l6.5-5.3c0.9-0.8,0.4-2.2-0.8-2.3l-8.3-0.5c-0.5,0-0.9-0.3-1.1-0.8l-3.1-7.8c-0.4-1.1-2-1.1-2.4,0l-3.1,7.8
			c-0.2,0.5-0.6,0.8-1.1,0.8l-8.4,0.5c-1.2,0.1-1.7,1.5-0.8,2.3l6.6,5.2c0.4,0.3,0.6,0.9,0.4,1.3l-2.1,8.1c-0.3,1.1,0.9,2.1,2,1.4
			l7-4.5c0.4-0.3,1-0.3,1.4,0L156,29c1,0.6,2.2-0.3,2-1.4l-2.1-8.1C155.7,19.1,155.8,18.6,156.2,18.3z"/>
	</g>
	<g id="Layer_1_3_">
		<path d="M123.1,18.3l6.5-5.3c0.9-0.8,0.4-2.2-0.8-2.3l-8.3-0.5c-0.5,0-0.9-0.3-1.1-0.8l-3.1-7.8c-0.4-1.1-2-1.1-2.4,0l-3.1,7.8
			c-0.2,0.5-0.6,0.8-1.1,0.8l-8.4,0.5c-1.2,0.1-1.7,1.5-0.8,2.3l6.6,5.2c0.4,0.3,0.6,0.9,0.4,1.3l-2.1,8.1c-0.3,1.1,0.9,2.1,2,1.4
			l7-4.5c0.4-0.3,1-0.3,1.4,0l7.1,4.5c1,0.6,2.2-0.3,2-1.4l-2.1-8.1C122.6,19.1,122.7,18.6,123.1,18.3z"/>
	</g>
</g>
</svg>
