<?xml version="1.0" encoding="utf-8"?>
<!-- Generator: Adobe Illustrator 25.4.1, SVG Export Plug-In . SVG Version: 6.00 Build 0)  -->
<svg version="1.1" id="Layer_1" xmlns="http://www.w3.org/2000/svg" xmlns:xlink="http://www.w3.org/1999/xlink" x="0px" y="0px"
	 viewBox="0 0 100 101.8" enable-background="new 0 0 100 101.8" xml:space="preserve">
<g>
	<path fill-rule="evenodd" clip-rule="evenodd" fill="#FFFFFF" d="M83.8,36.1c0.6,0,1-0.4,1-1c0-7.9-5.8-14.5-13.5-15.7l3.5-2.4
		c0.5-0.3,0.6-0.9,0.3-1.4c-0.3-0.5-0.9-0.6-1.4-0.3L68,19.2c-0.2,0.2-0.4,0.5-0.4,0.8c0,0.2,0.1,0.4,0.2,0.6l3.9,5.7
		c0.3,0.5,0.9,0.6,1.4,0.3s0.6-0.9,0.3-1.4l-2.7-3.9c6.8,0.9,12.1,6.7,12.1,13.8C82.8,35.7,83.2,36.1,83.8,36.1z M25,15h10
		c0.6,0,1-0.4,1-1s-0.4-1-1-1H25c-0.6,0-1,0.4-1,1S24.4,15,25,15z M18.1,45H16c-0.7,0-1.4,0.1-2,0.2c-0.5,0.1-0.9,0.6-0.8,1.2
		c0.1,0.5,0.5,0.8,1,0.8c0.1,0,0.1,0,0.2,0c0.5-0.1,1.1-0.2,1.7-0.2h2.1c0.6,0,1-0.4,1-1S18.7,45,18.1,45z M28.1,45h-4
		c-0.6,0-1,0.4-1,1s0.4,1,1,1h4c0.6,0,1-0.4,1-1S28.7,45,28.1,45z M84,45H55V16c0-6.1-4.9-11-11-11H16C9.9,5,5,9.9,5,16v68
		c0,6.1,4.9,11,11,11h68c6.1,0,11-4.9,11-11V56C95,49.9,90.1,45,84,45z M16,93c-5,0-9-4-9-9V53.2c0.3-0.1,0.6-0.3,0.7-0.6
		c0.5-1.1,1.1-2.1,2-3c0.4-0.4,0.4-1,0-1.4s-1-0.4-1.4,0c-0.5,0.5-0.9,1-1.2,1.5V16c0-5,4-9,9-9h28c5,0,9,4,9,9v68c0,5-4,9-9,9H16z
		 M93,84c0,5-4,9-9,9H50.3c2.8-2,4.7-5.3,4.7-9V47h29c5,0,9,4,9,9V84z M38.1,45h-4c-0.6,0-1,0.4-1,1s0.4,1,1,1h4c0.6,0,1-0.4,1-1
		S38.6,45,38.1,45z M48,45h-4c-0.6,0-1,0.4-1,1s0.4,1,1,1h4c0.6,0,1-0.4,1-1S48.6,45,48,45z M86,64c-0.6,0-1,0.4-1,1v10
		c0,0.6,0.4,1,1,1s1-0.4,1-1V65C87,64.4,86.6,64,86,64z"/>
</g>
</svg>
