<?xml version="1.0" encoding="utf-8"?>
<!-- Generator: Adobe Illustrator 26.0.3, SVG Export Plug-In . SVG Version: 6.00 Build 0)  -->
<svg version="1.1" id="Layer_1" xmlns="http://www.w3.org/2000/svg" xmlns:xlink="http://www.w3.org/1999/xlink" x="0px" y="0px"
	 viewBox="0 0 25 25" style="enable-background:new 0 0 25 25;" xml:space="preserve">
<style type="text/css">
	.st0{fill-rule:evenodd;clip-rule:evenodd;}
</style>
<path id="path-1_00000067227572168037402810000000241047425460529333_" class="st0" d="M18.9,19.5H6.1c-0.6,0-1.1-0.4-1.1-1V7
	c0-0.5,0.5-1,1.1-1h12.8C19.5,6,20,6.4,20,7v11.6C20,19.1,19.5,19.5,18.9,19.5L18.9,19.5z M7.6,17.3h2.2v-6.1H7.6V17.3L7.6,17.3z
	 M8.7,8.2C8,8.2,7.5,8.7,7.5,9.3c0,0.6,0.5,1.1,1.2,1.1h0c0.8,0,1.2-0.5,1.2-1.1C9.9,8.7,9.5,8.2,8.7,8.2L8.7,8.2z M17.8,13.8
	c0-1.9-1.1-2.8-2.5-2.8c-1.2,0-1.7,0.6-2,1v-0.9H11c0,0.6,0,6.1,0,6.1h2.2v-3.4c0-0.2,0-0.4,0.1-0.5c0.2-0.4,0.5-0.7,1.1-0.7
	c0.8,0,1.1,0.6,1.1,1.4v3.3h2.2V13.8L17.8,13.8z M13.2,12.1C13.2,12.1,13.2,12.1,13.2,12.1L13.2,12.1L13.2,12.1L13.2,12.1z"/>
</svg>
