<?xml version="1.0" encoding="utf-8"?>
<!-- Generator: Adobe Illustrator 25.2.1, SVG Export Plug-In . SVG Version: 6.00 Build 0)  -->
<svg version="1.1" id="Layer_1" xmlns="http://www.w3.org/2000/svg" xmlns:xlink="http://www.w3.org/1999/xlink" x="0px" y="0px"
	 viewBox="0 0 127 57" enable-background="new 0 0 127 57" xml:space="preserve">
<g class="ico">
	<path fill="#FFFFFF" d="M53,26.1H0v9.2h53V26.1z"/>
	<path fill="#FFFFFF" d="M40,15.4L26.5,0L13,15.4L0,4.3v10.6l13.5,10.9l13.1-14.5l13,14.5L53,14.9V4.3L40,15.4z"/>
</g>
<g class="text">
	<path fill="#FFFFFF" d="M71.9,1.7h2.7v13.7h-2.7V1.7z M75,8.4l4.5-6.7h3.1L78,8.2l5.5,7.2h-3.2L75,8.4z"/>
	<path fill="#FFFFFF" d="M85.5,3.8c-0.2-0.1-0.4-0.3-0.6-0.5c-0.1-0.2-0.2-0.5-0.2-0.7c0-0.3,0.1-0.5,0.2-0.7
		c0.1-0.2,0.3-0.4,0.6-0.5c0.2-0.1,0.5-0.2,0.8-0.2c0.3,0,0.5,0.1,0.8,0.2c0.2,0.1,0.4,0.3,0.6,0.5c0.1,0.2,0.2,0.5,0.2,0.7
		s-0.1,0.5-0.2,0.7c-0.1,0.2-0.3,0.4-0.6,0.5C86.8,3.9,86.6,4,86.3,4C86,4,85.8,3.9,85.5,3.8z M85,5.7h2.6v9.7H85V5.7z"/>
	<path fill="#FFFFFF" d="M98.7,6.4c0.5,0.6,0.7,1.5,0.7,2.5v6.5h-2.6V9.5c0-0.6-0.1-1-0.4-1.3c-0.3-0.3-0.6-0.4-1.1-0.4
		c-0.4,0-0.8,0.1-1.2,0.3c-0.4,0.2-0.8,0.6-1.2,1v6.3h-2.6V5.7h1.6l0.6,1.9c0.6-0.7,1.2-1.2,1.8-1.6c0.6-0.4,1.3-0.5,2.1-0.5
		C97.5,5.4,98.3,5.8,98.7,6.4z"/>
	<path fill="#FFFFFF" d="M109.4,13.6c0.7,0.2,1.2,0.6,1.5,1.1c0.3,0.5,0.5,1,0.5,1.6c0,0.7-0.2,1.4-0.6,1.9c-0.4,0.5-1,0.9-1.8,1.2
		c-0.8,0.3-1.7,0.4-2.8,0.4c-1,0-2-0.1-2.7-0.4c-0.8-0.2-1.4-0.6-1.7-1.1c-0.4-0.5-0.6-1-0.6-1.6c0-0.4,0.1-0.8,0.3-1.1
		c0.2-0.3,0.5-0.5,1-0.7c-0.2-0.2-0.4-0.4-0.6-0.6c-0.1-0.2-0.2-0.5-0.2-0.8c0-0.4,0.1-0.8,0.4-1.2c0.3-0.4,0.6-0.7,1-1
		c-0.5-0.3-0.8-0.7-1-1.2c-0.2-0.5-0.4-1-0.4-1.6c0-0.7,0.2-1.3,0.5-1.8c0.3-0.5,0.8-0.9,1.5-1.2c0.6-0.3,1.4-0.4,2.3-0.4
		c1,0,1.8,0.2,2.5,0.5l2.2-1.5l1,1.5L109.8,7c0.3,0.5,0.4,1.1,0.4,1.7c0,0.7-0.2,1.3-0.5,1.8c-0.3,0.5-0.8,0.9-1.5,1.2
		s-1.4,0.4-2.3,0.4c-0.5,0-1,0-1.4-0.1c-0.2,0.2-0.3,0.3-0.3,0.4c-0.1,0.1-0.1,0.2-0.1,0.3c0,0.2,0.1,0.3,0.2,0.4s0.4,0.1,0.8,0.1h2
		C108,13.2,108.8,13.4,109.4,13.6z M108.2,17.3c0.4-0.2,0.6-0.5,0.6-0.9c0-0.3-0.2-0.5-0.5-0.7c-0.3-0.2-0.7-0.2-1.3-0.2h-2.8h0
		c-0.2,0.1-0.4,0.3-0.5,0.4c-0.1,0.2-0.2,0.3-0.2,0.5c0,0.4,0.2,0.7,0.6,0.9c0.4,0.2,1,0.3,1.8,0.3h0.3
		C107.1,17.6,107.8,17.5,108.2,17.3z M104.6,7.6c-0.3,0.2-0.4,0.6-0.4,1.1c0,0.5,0.1,0.9,0.4,1.1c0.3,0.2,0.7,0.4,1.2,0.4
		c0.5,0,1-0.1,1.2-0.4c0.3-0.2,0.4-0.6,0.4-1.1c0-0.5-0.1-0.9-0.4-1.1c-0.3-0.2-0.7-0.4-1.3-0.4C105.3,7.2,104.9,7.3,104.6,7.6z"/>
	<path fill="#FFFFFF" d="M113.8,15.4c-0.7-0.2-1.3-0.4-1.8-0.7l0.7-1.9c0.6,0.2,1.2,0.4,1.8,0.6c0.6,0.2,1.1,0.2,1.4,0.2
		c0.4,0,0.7-0.1,1-0.2c0.2-0.2,0.3-0.4,0.3-0.6c0-0.3-0.1-0.5-0.4-0.7c-0.2-0.2-0.7-0.4-1.2-0.6l-0.7-0.2c-1.8-0.6-2.6-1.6-2.6-3
		c0-0.6,0.2-1.1,0.5-1.5c0.3-0.4,0.8-0.7,1.3-0.9c0.6-0.2,1.2-0.3,1.9-0.3c1.1,0,2.2,0.2,3.3,0.7l-0.6,2c-0.5-0.2-0.9-0.3-1.4-0.5
		c-0.5-0.1-0.9-0.2-1.2-0.2c-0.4,0-0.7,0.1-0.9,0.2s-0.3,0.3-0.3,0.6c0,0.5,0.4,0.9,1.2,1.1l0.6,0.2c0.7,0.2,1.2,0.5,1.6,0.7
		c0.4,0.3,0.8,0.6,1,1c0.3,0.4,0.4,0.9,0.4,1.4c0,0.6-0.2,1.1-0.5,1.5c-0.3,0.4-0.8,0.8-1.4,1c-0.6,0.2-1.2,0.3-2,0.3
		C115.1,15.6,114.5,15.5,113.8,15.4z"/>
	<path fill="#FFFFFF" d="M74.3,35c-1.1-0.6-1.9-1.4-2.4-2.5c-0.6-1.1-0.8-2.3-0.8-3.7c0-1.4,0.3-2.6,0.8-3.7
		c0.6-1.1,1.4-1.9,2.4-2.5c1.1-0.6,2.3-0.9,3.7-0.9c0.7,0,1.4,0.1,2.2,0.3c0.7,0.2,1.4,0.5,2,0.8l-0.7,2.3c-0.5-0.3-1-0.5-1.5-0.7
		c-0.5-0.2-1.1-0.2-1.7-0.2c-0.9,0-1.6,0.2-2.2,0.5c-0.6,0.4-1.1,0.9-1.5,1.6c-0.3,0.7-0.5,1.5-0.5,2.5c0,0.9,0.2,1.7,0.5,2.4
		c0.3,0.7,0.8,1.2,1.4,1.6c0.6,0.4,1.4,0.6,2.3,0.6c0.6,0,1.3-0.1,1.9-0.3c0.6-0.2,1.2-0.5,1.6-0.9l0.8,2.2
		c-0.6,0.5-1.4,0.8-2.2,1.1c-0.8,0.3-1.6,0.4-2.3,0.4C76.6,35.9,75.3,35.6,74.3,35z"/>
	<path fill="#FFFFFF" d="M91,26.1l-0.5,2.4c-0.3-0.2-0.6-0.3-0.9-0.4c-0.3-0.1-0.5-0.1-0.8-0.1c-0.3,0-0.6,0.1-0.9,0.2
		c-0.3,0.2-0.6,0.4-0.9,0.7v6.7h-2.6v-9.7h1.6l0.6,1.8c0.4-0.6,0.9-1.1,1.4-1.4c0.6-0.4,1.1-0.6,1.6-0.6C90,25.7,90.5,25.8,91,26.1z
		"/>
	<path fill="#FFFFFF" d="M98.5,26.3c0.6,0.4,1.1,1,1.5,1.7c0.3,0.8,0.5,1.7,0.5,2.7c0,0.2,0,0.3,0,0.4h-6.8c0,0.8,0.3,1.5,0.8,1.9
		c0.5,0.5,1.1,0.7,1.9,0.7c1,0,2-0.4,2.9-1.3l1,1.4c-0.5,0.6-1,1.1-1.7,1.4c-0.7,0.4-1.5,0.5-2.5,0.5c-0.9,0-1.8-0.2-2.5-0.6
		c-0.7-0.4-1.3-1-1.7-1.7c-0.4-0.8-0.6-1.7-0.6-2.7c0-1,0.2-1.9,0.6-2.7c0.4-0.8,1-1.4,1.7-1.8c0.7-0.4,1.6-0.7,2.5-0.7
		C97.1,25.7,97.9,25.9,98.5,26.3z M98.2,29.5c-0.1-1.2-0.7-1.8-1.9-1.8c-0.6,0-1.1,0.2-1.5,0.5c-0.4,0.3-0.7,0.8-0.9,1.4H98.2z"/>
	<path fill="#FFFFFF" d="M103.5,35.6c-0.7-0.2-1.3-0.4-1.8-0.7l0.7-1.9c0.6,0.2,1.2,0.4,1.8,0.6c0.6,0.2,1.1,0.2,1.4,0.2
		c0.4,0,0.7-0.1,1-0.2c0.2-0.2,0.3-0.4,0.3-0.6c0-0.3-0.1-0.5-0.4-0.7c-0.2-0.2-0.7-0.4-1.2-0.6l-0.7-0.2c-1.8-0.6-2.6-1.6-2.6-3
		c0-0.6,0.2-1.1,0.5-1.5c0.3-0.4,0.8-0.7,1.3-0.9c0.6-0.2,1.2-0.3,1.9-0.3c1.1,0,2.2,0.2,3.3,0.7l-0.6,2c-0.5-0.2-0.9-0.3-1.4-0.5
		c-0.5-0.1-0.9-0.2-1.2-0.2c-0.4,0-0.7,0.1-0.9,0.2c-0.2,0.1-0.3,0.3-0.3,0.6c0,0.5,0.4,0.9,1.2,1.1l0.6,0.2
		c0.7,0.2,1.2,0.5,1.6,0.7c0.4,0.3,0.8,0.6,1,1c0.3,0.4,0.4,0.9,0.4,1.4c0,0.6-0.2,1.1-0.5,1.5s-0.8,0.8-1.4,1
		c-0.6,0.2-1.2,0.3-2,0.3C104.9,35.9,104.2,35.8,103.5,35.6z"/>
	<path fill="#FFFFFF" d="M112,35c-0.4-0.6-0.6-1.4-0.6-2.5v-4.8h-1.2v-1.2l1.6-0.5l0.4-1.9h1.8v1.9h2.7v1.7H114v4.7
		c0,0.5,0.1,0.9,0.3,1.1c0.2,0.2,0.4,0.3,0.8,0.3c0.3,0,0.6,0,0.8-0.1s0.6-0.2,0.9-0.4l0.8,1.5c-0.6,0.4-1.2,0.7-1.7,0.9
		c-0.5,0.2-1.1,0.3-1.7,0.3C113.1,35.9,112.4,35.6,112,35z"/>
	<path fill="#FFFFFF" d="M74.5,55.2c-1.1-0.6-1.9-1.4-2.5-2.4c-0.6-1.1-0.9-2.3-0.9-3.7c0-1.4,0.3-2.6,0.9-3.7
		c0.6-1.1,1.4-1.9,2.5-2.6c1.1-0.6,2.4-0.9,3.8-0.9c0.7,0,1.4,0.1,2.1,0.3c0.8,0.2,1.4,0.5,1.9,0.8l-0.8,2.3
		c-0.4-0.3-0.9-0.5-1.5-0.7c-0.6-0.2-1.1-0.2-1.7-0.2c-0.9,0-1.7,0.2-2.4,0.6c-0.7,0.4-1.2,0.9-1.5,1.6c-0.4,0.7-0.5,1.5-0.5,2.4
		c0,1,0.2,1.8,0.6,2.6c0.4,0.7,0.9,1.2,1.5,1.6c0.6,0.4,1.3,0.5,2.1,0.5c0.5,0,0.9,0,1.2-0.1c0.4-0.1,0.7-0.2,1.1-0.4v-2.8h-2.6
		v-2.2H83v6.4c-0.6,0.3-1.2,0.6-1.6,0.8c-0.5,0.2-0.9,0.3-1.5,0.4c-0.6,0.1-1.2,0.2-2,0.2C76.7,56.1,75.5,55.8,74.5,55.2z"/>
	<path fill="#FFFFFF" d="M85.3,41.8H88v14.1h-2.6V41.8z"/>
	<path fill="#FFFFFF" d="M92.4,55.4c-0.8-0.4-1.4-1-1.8-1.8c-0.4-0.8-0.7-1.6-0.7-2.6s0.2-1.8,0.7-2.6c0.4-0.8,1-1.4,1.8-1.8
		c0.8-0.4,1.6-0.7,2.5-0.7c0.9,0,1.8,0.2,2.5,0.7c0.8,0.4,1.4,1,1.8,1.8c0.4,0.8,0.7,1.6,0.7,2.6s-0.2,1.8-0.7,2.6
		c-0.4,0.8-1,1.4-1.8,1.8c-0.8,0.4-1.6,0.7-2.5,0.7C94,56.1,93.1,55.9,92.4,55.4z M96.2,53.6c0.4-0.2,0.6-0.6,0.8-1
		c0.2-0.4,0.3-1,0.3-1.6c0-0.6-0.1-1.1-0.3-1.6s-0.5-0.8-0.8-1c-0.4-0.2-0.8-0.4-1.3-0.4s-0.9,0.1-1.3,0.4c-0.4,0.2-0.6,0.6-0.8,1
		c-0.2,0.5-0.3,1-0.3,1.6c0,0.6,0.1,1.1,0.3,1.6c0.2,0.5,0.5,0.8,0.8,1c0.4,0.2,0.8,0.4,1.3,0.4S95.8,53.9,96.2,53.6z"/>
	<path fill="#FFFFFF" d="M109.6,46.6c0.6,0.4,1,1,1.3,1.7c0.3,0.7,0.5,1.6,0.5,2.5c0,1.1-0.2,2-0.6,2.8c-0.4,0.8-1,1.4-1.7,1.9
		s-1.7,0.7-2.7,0.7c-1.6,0-3.1-0.5-4.5-1.6V41.8h2.6v5.6c0.5-0.4,1-0.8,1.5-1c0.6-0.3,1.1-0.4,1.6-0.4C108.4,46,109,46.2,109.6,46.6
		z M108.2,53.2c0.4-0.5,0.7-1.2,0.7-2.2c0-0.9-0.2-1.6-0.5-2.1c-0.4-0.5-0.9-0.7-1.5-0.7c-0.6,0-1.4,0.4-2.2,1.1v3.9
		c0.2,0.2,0.5,0.4,0.9,0.6c0.3,0.1,0.7,0.2,1,0.2C107.1,54,107.7,53.7,108.2,53.2z"/>
	<path fill="#FFFFFF" d="M121.4,52.8v3.1h-1.6l-0.5-1.5c-0.5,0.4-0.9,0.7-1.3,0.9c-0.4,0.2-0.8,0.5-1.2,0.6
		c-0.5,0.1-0.9,0.2-1.4,0.2c-0.5,0-1-0.1-1.4-0.3c-0.4-0.2-0.7-0.5-1-0.9c-0.2-0.4-0.4-0.8-0.4-1.3c0-1.1,0.5-1.9,1.5-2.6
		c1-0.7,2.6-1.2,4.6-1.4c0-0.5-0.2-0.8-0.4-1.1c-0.2-0.2-0.6-0.3-1.1-0.3c-0.6,0-1.1,0.1-1.6,0.3c-0.5,0.2-1.1,0.5-1.7,0.8l-0.7-1.9
		c0.6-0.4,1.3-0.7,2.1-1c0.8-0.3,1.7-0.4,2.5-0.4c1.3,0,2.2,0.3,2.7,1c0.5,0.7,0.8,1.7,0.8,2.9L121.4,52.8z M115.5,53.8
		c0.2,0.2,0.4,0.2,0.8,0.2c0.4,0,0.8-0.1,1.2-0.3c0.4-0.2,0.8-0.5,1.2-0.9v-1.7c-0.9,0.1-1.6,0.3-2.1,0.4c-0.5,0.2-0.9,0.4-1.1,0.6
		c-0.2,0.2-0.3,0.5-0.3,0.8C115.3,53.3,115.3,53.6,115.5,53.8z"/>
	<path fill="#FFFFFF" d="M123.9,41.8h2.6v14.1h-2.6V41.8z"/>
</g>
</svg>
